<?xml version="1.0" encoding="UTF-8"?>
<!DOCTYPE svg PUBLIC "-//W3C//DTD SVG 1.1//EN" "http://www.w3.org/Graphics/SVG/1.1/DTD/svg11.dtd">
<svg xmlns="http://www.w3.org/2000/svg" version="1.1" width="1024px" height="1024px" style="shape-rendering:geometricPrecision; text-rendering:geometricPrecision; image-rendering:optimizeQuality; fill-rule:evenodd; clip-rule:evenodd" xmlns:xlink="http://www.w3.org/1999/xlink">
<g><path style="opacity:1" fill="#eb555b" d="M 565.5,167.5 C 622.248,167.604 662.415,193.27 686,244.5C 701.843,290.47 694.843,332.47 665,370.5C 643.667,391.833 622.333,413.167 601,434.5C 599.948,460.571 591.614,483.905 576,504.5C 553.863,528.304 531.03,551.471 507.5,574C 462.922,603.983 416.922,606.317 369.5,581C 322.309,548.821 303.475,504.321 313,447.5C 318.278,426.276 328.278,407.61 343,391.5C 356.86,377.64 370.694,363.806 384.5,350C 391.74,343.591 399.407,337.758 407.5,332.5C 407.984,299.858 419.484,271.858 442,248.5C 459.418,232.084 476.585,215.25 493.5,198C 514.378,180.392 538.378,170.226 565.5,167.5 Z M 564.5,255.5 C 581.576,253.293 594.743,259.293 604,273.5C 610.333,286.846 609.666,299.846 602,312.5C 567.472,347.361 532.639,381.861 497.5,416C 491.167,416.333 484.833,416.667 478.5,417C 466.764,423.77 463.93,433.27 470,445.5C 477.557,454.2 487.057,459.7 498.5,462C 499.451,462.718 499.617,463.551 499,464.5C 483.833,479 468.667,493.5 453.5,508C 436.032,516.717 419.865,514.884 405,502.5C 391.444,484.99 391.11,467.323 404,449.5C 418.227,434.604 433.061,420.437 448.5,407C 452.733,403.635 457.567,401.802 463,401.5C 469.985,404.013 477.152,404.847 484.5,404C 486.949,403.275 489.283,402.275 491.5,401C 503.638,389.863 515.471,378.363 527,366.5C 536.663,350.797 533.83,337.963 518.5,328C 511.61,325.056 504.61,322.389 497.5,320C 496.446,318.612 496.28,317.112 497,315.5C 514.446,298.054 531.946,280.554 549.5,263C 554.045,259.394 559.045,256.894 564.5,255.5 Z"/></g>
<g><path style="opacity:1" fill="#fdab3b" d="M 555.5,187.5 C 603.596,182.382 639.929,200.382 664.5,241.5C 678.476,271.753 679.143,302.419 666.5,333.5C 662.333,341.172 657.666,348.505 652.5,355.5C 627.698,380.302 603.031,404.969 578.5,429.5C 549.691,450.614 519.357,452.947 487.5,436.5C 496.08,436.656 504.08,434.656 511.5,430.5C 543.887,398.113 576.221,365.779 608.5,333.5C 611.08,328.916 614.413,324.916 618.5,321.5C 633.587,294.253 629.92,269.92 607.5,248.5C 593.145,237.937 577.145,233.937 559.5,236.5C 552.277,238.778 545.61,242.112 539.5,246.5C 520.5,265.5 501.5,284.5 482.5,303.5C 479.527,307.307 477.194,311.473 475.5,316C 459.227,315.09 443.56,317.59 428.5,323.5C 427.779,313.161 429.445,303.161 433.5,293.5C 437.435,285.906 441.768,278.573 446.5,271.5C 464.833,253.167 483.167,234.833 501.5,216.5C 508.934,209.731 516.934,203.731 525.5,198.5C 535.258,193.807 545.258,190.14 555.5,187.5 Z"/></g>
<g><path style="opacity:1" fill="#fd7f8b" d="M 455.5,334.5 C 475.396,332.651 494.063,336.484 511.5,346C 512.899,347.062 513.899,348.395 514.5,350C 513.414,352.752 511.914,355.252 510,357.5C 500.196,366.303 490.696,375.47 481.5,385C 472.279,383.562 462.946,383.228 453.5,384C 447.451,385.858 441.784,388.525 436.5,392C 419.308,408.192 402.475,424.692 386,441.5C 369.115,470.366 372.615,496.532 396.5,520C 413.921,532.68 432.921,535.68 453.5,529C 457.961,526.936 462.294,524.602 466.5,522C 485.986,503.348 505.319,484.515 524.5,465.5C 544.417,465.759 562.584,460.426 579,449.5C 577.419,464.568 572.085,478.235 563,490.5C 541.349,514.651 518.516,537.651 494.5,559.5C 456.57,584.642 417.57,586.142 377.5,564C 339.854,538.141 324.021,502.308 330,456.5C 331.387,448.947 333.387,441.614 336,434.5C 342.448,422.055 350.448,410.722 360,400.5C 372.167,388.333 384.333,376.167 396.5,364C 413.283,348.275 432.95,338.442 455.5,334.5 Z"/></g>
<g><path style="opacity:0.245" fill="#e45353" d="M 806.5,701.5 C 805.167,701.5 804.5,702.167 804.5,703.5C 805.051,715.827 805.551,728.161 806,740.5C 806.315,742.586 806.815,744.586 807.5,746.5C 807.225,748.842 806.392,748.842 805,746.5C 803.927,742.916 803.26,739.25 803,735.5C 802.333,724.167 802.333,712.833 803,701.5C 811.23,699.548 819.73,698.882 828.5,699.5C 828.666,691.493 828.5,683.493 828,675.5C 820,676.833 812,676.833 804,675.5C 803.5,667.173 803.334,658.84 803.5,650.5C 794.5,650.5 785.5,650.5 776.5,650.5C 776.803,658.889 776.47,667.222 775.5,675.5C 769.872,676.495 764.206,676.829 758.5,676.5C 758.5,684.167 758.5,691.833 758.5,699.5C 763.844,699.334 769.177,699.501 774.5,700C 773.956,700.717 773.289,701.217 772.5,701.5C 766.907,701.807 761.407,701.473 756,700.5C 755.368,691.814 755.534,683.148 756.5,674.5C 762.545,674.697 768.545,674.363 774.5,673.5C 774.183,664.915 774.517,656.415 775.5,648C 785.167,647.333 794.833,647.333 804.5,648C 805.318,656.422 805.818,664.922 806,673.5C 813.985,673.406 821.985,673.739 830,674.5C 830.5,683.494 830.666,692.494 830.5,701.5C 822.5,701.5 814.5,701.5 806.5,701.5 Z"/></g>
<g><path style="opacity:0.08" fill="#f3515a" d="M 865.5,675.5 C 855.085,675.192 844.751,675.525 834.5,676.5C 839.288,675.172 844.454,674.505 850,674.5C 855.344,674.501 860.511,674.834 865.5,675.5 Z"/></g>
<g><path style="opacity:0.786" fill="#e21c31" d="M 865.5,675.5 C 865.631,676.239 865.464,676.906 865,677.5C 854.876,676.225 844.709,676.225 834.5,677.5C 834.5,677.167 834.5,676.833 834.5,676.5C 844.751,675.525 855.085,675.192 865.5,675.5 Z"/></g>
<g><path style="opacity:0.682" fill="#f02e41" d="M 441.5,676.5 C 441.5,676.167 441.5,675.833 441.5,675.5C 450.5,675.5 459.5,675.5 468.5,675.5C 468.5,678.167 468.5,680.833 468.5,683.5C 466.656,681.721 465.99,679.388 466.5,676.5C 458.167,676.5 449.833,676.5 441.5,676.5 Z"/></g>
<g><path style="opacity:1" fill="#f65f64" d="M 807.5,746.5 C 809.671,748.172 812.171,749.172 815,749.5C 819.803,748.959 824.469,747.959 829,746.5C 829.333,746.833 829.667,747.167 830,747.5C 830.816,756.412 830.65,765.245 829.5,774C 815.262,777.83 801.262,777.163 787.5,772C 780.939,766.712 777.105,759.878 776,751.5C 774.839,736.862 774.172,722.195 774,707.5C 773.685,705.414 773.185,703.414 772.5,701.5C 773.289,701.217 773.956,700.717 774.5,700C 769.177,699.501 763.844,699.334 758.5,699.5C 758.5,691.833 758.5,684.167 758.5,676.5C 764.206,676.829 769.872,676.495 775.5,675.5C 776.47,667.222 776.803,658.889 776.5,650.5C 785.5,650.5 794.5,650.5 803.5,650.5C 803.334,658.84 803.5,667.173 804,675.5C 812,676.833 820,676.833 828,675.5C 828.5,683.493 828.666,691.493 828.5,699.5C 819.73,698.882 811.23,699.548 803,701.5C 802.333,712.833 802.333,724.167 803,735.5C 803.26,739.25 803.927,742.916 805,746.5C 806.392,748.842 807.225,748.842 807.5,746.5 Z"/></g>
<g><path style="opacity:1" fill="#f66063" d="M 427.5,701.5 C 426.4,699.723 425.566,697.723 425,695.5C 426.292,721.068 427.125,746.735 427.5,772.5C 418.5,772.5 409.5,772.5 400.5,772.5C 400.667,752.831 400.5,733.164 400,713.5C 399.64,711.392 398.973,709.392 398,707.5C 397.51,708.793 397.343,710.127 397.5,711.5C 391.786,701.428 383.453,698.594 372.5,703C 368.334,706.165 365.834,710.332 365,715.5C 364.667,735.167 364.333,754.833 364,774.5C 362.915,775.293 361.748,775.96 360.5,776.5C 352.97,775.18 345.47,775.18 338,776.5C 336.933,775.809 335.766,775.309 334.5,775C 333.704,741.57 333.704,708.07 334.5,674.5C 344.167,674.5 353.833,674.5 363.5,674.5C 363.5,677.167 363.5,679.833 363.5,682.5C 363.786,684.933 364.452,684.933 365.5,682.5C 375.578,672.922 387.578,669.755 401.5,673C 415.56,677.646 424.227,687.146 427.5,701.5 Z"/></g>
<g><path style="opacity:0.004" fill="#fffef2" d="M 363.5,682.5 C 364.167,682.5 364.833,682.5 365.5,682.5C 364.452,684.933 363.786,684.933 363.5,682.5 Z"/></g>
<g><path style="opacity:1" fill="#f55f63" d="M 512.5,675.5 C 511.127,675.343 509.793,675.51 508.5,676C 520.799,681.138 528.132,690.305 530.5,703.5C 531.65,726.487 532.316,749.487 532.5,772.5C 523.494,772.334 514.494,772.5 505.5,773C 514.167,773.333 522.833,773.667 531.5,774C 529.618,774.198 527.952,774.698 526.5,775.5C 519.109,775.799 511.776,775.465 504.5,774.5C 503.667,755.175 503.167,735.842 503,716.5C 499.133,702.198 490.3,698.031 476.5,704C 473.894,705.938 472.061,708.438 471,711.5C 469.334,732.156 469,752.823 470,773.5C 469.5,774 469,774.5 468.5,775C 464.514,775.499 460.514,775.666 456.5,775.5C 452.018,774.674 447.351,774.174 442.5,774C 451.16,773.5 459.827,773.334 468.5,773.5C 468.667,753.497 468.5,733.497 468,713.5C 467.5,733.164 467.333,752.831 467.5,772.5C 458.833,772.5 450.167,772.5 441.5,772.5C 441.5,740.5 441.5,708.5 441.5,676.5C 449.833,676.5 458.167,676.5 466.5,676.5C 465.99,679.388 466.656,681.721 468.5,683.5C 479.294,673.629 491.961,670.129 506.5,673C 508.723,673.566 510.723,674.4 512.5,675.5 Z"/></g>
<g><path style="opacity:0.098" fill="#ec565d" d="M 468.5,675.5 C 459.5,675.5 450.5,675.5 441.5,675.5C 440.171,708.736 440.171,742.069 441.5,775.5C 439.507,742.183 438.84,708.517 439.5,674.5C 449.348,674.173 459.014,674.506 468.5,675.5 Z"/></g>
<g><path style="opacity:0.004" fill="#fffef2" d="M 806.5,701.5 C 806.167,702.5 805.5,703.167 804.5,703.5C 804.5,702.167 805.167,701.5 806.5,701.5 Z"/></g>
<g><path style="opacity:1" fill="#f56064" d="M 583.5,672.5 C 610.429,669.37 629.262,680.036 640,704.5C 642.77,713.736 643.437,723.069 642,732.5C 640.266,733.249 638.433,733.749 636.5,734C 615.146,734.422 593.812,735.255 572.5,736.5C 574.621,744.119 579.621,748.952 587.5,751C 593.569,751.804 599.569,751.471 605.5,750C 610.451,746.702 615.618,743.869 621,741.5C 628.5,742.992 635.333,745.826 641.5,750C 633.671,765.089 621.337,774.089 604.5,777C 566.189,780.188 544.856,762.688 540.5,724.5C 542.504,696.84 556.838,679.506 583.5,672.5 Z M 591.5,696.5 C 602.207,696.216 608.873,701.216 611.5,711.5C 610.271,712.281 608.938,712.781 607.5,713C 595.497,713.711 583.497,714.044 571.5,714C 574.357,703.634 581.024,697.8 591.5,696.5 Z"/></g>
<g><path style="opacity:1" fill="#f55f62" d="M 834.5,677.5 C 844.709,676.225 854.876,676.225 865,677.5C 865.464,676.906 865.631,676.239 865.5,675.5C 867.64,677.7 869.14,680.367 870,683.5C 875.949,701.393 882.449,719.059 889.5,736.5C 895.916,716.583 902.916,696.916 910.5,677.5C 915.966,676.908 921.466,676.575 927,676.5C 931.919,676.532 936.586,677.199 941,678.5C 941.483,677.552 941.649,676.552 941.5,675.5C 931.115,675.214 920.782,675.548 910.5,676.5C 910.611,675.883 910.944,675.383 911.5,675C 916.667,674.833 921.833,674.667 927,674.5C 932.668,674.354 938.168,674.854 943.5,676C 925.258,722.654 906.591,769.154 887.5,815.5C 886.624,816.251 885.624,816.751 884.5,817C 874.473,817.729 864.473,817.563 854.5,816.5C 861.037,802.088 867.037,787.421 872.5,772.5C 860.098,740.7 847.431,709.033 834.5,677.5 Z"/></g>
<g><path style="opacity:0.788" fill="#e11b33" d="M 910.5,677.5 C 910.5,677.167 910.5,676.833 910.5,676.5C 920.782,675.548 931.115,675.214 941.5,675.5C 941.649,676.552 941.483,677.552 941,678.5C 936.586,677.199 931.919,676.532 927,676.5C 921.466,676.575 915.966,676.908 910.5,677.5 Z"/></g>
<g><path style="opacity:0.592" fill="#e8464e" d="M 512.5,675.5 C 525.666,682.477 532.832,693.477 534,708.5C 534.667,730.5 534.667,752.5 534,774.5C 531.619,775.435 529.119,775.768 526.5,775.5C 527.952,774.698 529.618,774.198 531.5,774C 522.833,773.667 514.167,773.333 505.5,773C 514.494,772.5 523.494,772.334 532.5,772.5C 532.316,749.487 531.65,726.487 530.5,703.5C 528.132,690.305 520.799,681.138 508.5,676C 509.793,675.51 511.127,675.343 512.5,675.5 Z"/></g>
<g><path style="opacity:0.42" fill="#e95d5d" d="M 427.5,701.5 C 428.319,704.305 428.819,707.305 429,710.5C 429.46,731.998 429.794,753.331 430,774.5C 419.546,776.026 409.046,776.36 398.5,775.5C 398.788,754.14 398.455,732.807 397.5,711.5C 397.343,710.127 397.51,708.793 398,707.5C 398.973,709.392 399.64,711.392 400,713.5C 400.5,733.164 400.667,752.831 400.5,772.5C 409.5,772.5 418.5,772.5 427.5,772.5C 427.125,746.735 426.292,721.068 425,695.5C 425.566,697.723 426.4,699.723 427.5,701.5 Z"/></g>
<g><path style="opacity:1" fill="#f55f63" d="M 263.5,672.5 C 286.969,669.494 305.469,677.494 319,696.5C 331.699,721.631 328.533,744.464 309.5,765C 295.42,776.243 279.42,780.243 261.5,777C 246.347,773.523 234.847,765.023 227,751.5C 216.141,728.394 218.808,707.06 235,687.5C 243.24,679.965 252.74,674.965 263.5,672.5 Z M 270.5,700.5 C 289.821,701.767 298.321,712.1 296,731.5C 290.765,746.035 280.598,751.535 265.5,748C 255.756,743.524 251.089,735.858 251.5,725C 251.707,711.972 258.04,703.805 270.5,700.5 Z"/></g>
<g><path style="opacity:1" fill="#f56063" d="M 171.5,777.5 C 172.347,776.034 173.68,775.2 175.5,775C 156.552,777.97 138.552,775.136 121.5,766.5C 120.537,766.97 120.537,767.637 121.5,768.5C 105.894,760.392 95.0605,748.058 89,731.5C 77.7123,689.251 91.5456,658.418 130.5,639C 164.438,628.019 192.605,636.186 215,663.5C 217.49,666.465 218.824,669.798 219,673.5C 210.823,678.505 202.323,682.839 193.5,686.5C 191.971,686.471 190.804,685.804 190,684.5C 182.242,672.366 171.075,666.032 156.5,665.5C 132.001,668.5 119.001,682.333 117.5,707C 119.361,731.528 132.528,744.694 157,746.5C 166.45,746.35 174.95,743.517 182.5,738C 186.059,733.699 189.725,729.532 193.5,725.5C 202.107,729.388 210.607,733.388 219,737.5C 219.325,739.553 218.991,741.553 218,743.5C 207.729,761.932 192.229,773.265 171.5,777.5 Z"/></g>
<g><path style="opacity:1" fill="#e0353f" d="M 335.5,675.5 C 344.173,675.334 352.84,675.5 361.5,676C 353.173,676.5 344.84,676.666 336.5,676.5C 336.5,708.5 336.5,740.5 336.5,772.5C 344.174,772.334 351.841,772.5 359.5,773C 351.507,773.5 343.507,773.666 335.5,773.5C 335.5,740.833 335.5,708.167 335.5,675.5 Z"/></g>
<g><path style="opacity:1" fill="#f45f62" d="M 694.5,672.5 C 718.744,669.393 737.244,678.06 750,698.5C 752.709,703.585 751.209,706.751 745.5,708C 739.277,710.362 733.11,712.862 727,715.5C 723.506,712.385 720.339,708.885 717.5,705C 708.518,699.006 699.518,699.006 690.5,705C 681.926,713.182 679.426,723.015 683,734.5C 689.094,747.205 698.928,751.372 712.5,747C 713.833,746.333 715.167,745.667 716.5,745C 719.392,741.367 722.392,737.867 725.5,734.5C 734.071,737.704 742.571,741.037 751,744.5C 750.346,750.483 748.013,755.817 744,760.5C 729.914,775.194 712.747,780.694 692.5,777C 665.435,770.263 651.102,752.929 649.5,725C 651.5,696.178 666.5,678.678 694.5,672.5 Z"/></g>
<g><path style="opacity:1" fill="#e45656" d="M 171.5,777.5 C 155.994,779.687 140.994,777.853 126.5,772C 124.767,770.811 123.1,769.644 121.5,768.5C 120.537,767.637 120.537,766.97 121.5,766.5C 138.552,775.136 156.552,777.97 175.5,775C 173.68,775.2 172.347,776.034 171.5,777.5 Z"/></g>
<g><path style="opacity:0.063" fill="#ce393d" d="M 441.5,675.5 C 441.5,675.833 441.5,676.167 441.5,676.5C 441.5,708.5 441.5,740.5 441.5,772.5C 450.167,772.5 458.833,772.5 467.5,772.5C 467.333,752.831 467.5,733.164 468,713.5C 468.5,733.497 468.667,753.497 468.5,773.5C 459.827,773.334 451.16,773.5 442.5,774C 447.351,774.174 452.018,774.674 456.5,775.5C 451.5,775.5 446.5,775.5 441.5,775.5C 440.171,742.069 440.171,708.736 441.5,675.5 Z"/></g>
</svg>
